<svg width="37" height="42" viewBox="0 0 37 42" fill="none" xmlns="http://www.w3.org/2000/svg">
<g clip-path="url(#clip0_50_28)">
<path d="M18.5083 11.5664C13.2556 11.5664 9.01878 15.7746 9.01878 20.9917C9.01878 26.2089 13.2556 30.4171 18.5083 30.4171C23.761 30.4171 27.9978 26.2089 27.9978 20.9917C27.9978 15.7746 23.761 11.5664 18.5083 11.5664ZM18.5083 27.1195C15.1139 27.1195 12.3389 24.3714 12.3389 20.9917C12.3389 17.6121 15.1056 14.864 18.5083 14.864C21.911 14.864 24.6777 17.6121 24.6777 20.9917C24.6777 24.3714 21.9027 27.1195 18.5083 27.1195ZM30.5994 11.1808C30.5994 12.4031 29.6083 13.3792 28.386 13.3792C27.1554 13.3792 26.1726 12.3949 26.1726 11.1808C26.1726 9.96675 27.1637 8.98237 28.386 8.98237C29.6083 8.98237 30.5994 9.96675 30.5994 11.1808ZM36.8844 13.4121C36.744 10.4671 36.0668 7.85855 33.8947 5.70933C31.7308 3.56011 29.1045 2.88745 26.1395 2.73979C23.0837 2.56753 13.9246 2.56753 10.8688 2.73979C7.91208 2.87925 5.28574 3.5519 3.11365 5.70112C0.941548 7.85034 0.272574 10.4589 0.123914 13.4039C-0.0495239 16.439 -0.0495239 25.5363 0.123914 28.5714C0.264315 31.5164 0.941548 34.125 3.11365 36.2742C5.28574 38.4234 7.90383 39.096 10.8688 39.2437C13.9246 39.416 23.0837 39.416 26.1395 39.2437C29.1045 39.1042 31.7308 38.4316 33.8947 36.2742C36.0585 34.125 36.7358 31.5164 36.8844 28.5714C37.0578 25.5363 37.0578 16.4472 36.8844 13.4121ZM32.9366 31.8281C32.2924 33.4359 31.0453 34.6746 29.4183 35.3226C26.982 36.2824 21.2007 36.0609 18.5083 36.0609C15.8159 36.0609 10.0264 36.2742 7.59824 35.3226C5.97949 34.6828 4.7324 33.4441 4.07994 31.8281C3.11365 29.4082 3.33664 23.666 3.33664 20.9917C3.33664 18.3175 3.12191 12.5671 4.07994 10.1554C4.72414 8.54761 5.97124 7.30894 7.59824 6.66089C10.0346 5.70112 15.8159 5.92261 18.5083 5.92261C21.2007 5.92261 26.9902 5.70933 29.4183 6.66089C31.0371 7.30073 32.2842 8.5394 32.9366 10.1554C33.9029 12.5753 33.6799 18.3175 33.6799 20.9917C33.6799 23.666 33.9029 29.4164 32.9366 31.8281Z" fill="#1F3851"/>
</g>
<defs>
<clipPath id="clip0_50_28">
<rect width="37" height="42" fill="white"/>
</clipPath>
</defs>
</svg>
