<svg width="46" height="46" viewBox="0 0 46 46" fill="none" xmlns="http://www.w3.org/2000/svg">
<path d="M37.375 18.6875C37.375 22.8113 36.0363 26.6207 33.7813 29.7113L45.1555 41.0945C46.2785 42.2176 46.2785 44.0414 45.1555 45.1645C44.0324 46.2875 42.2086 46.2875 41.0855 45.1645L29.7113 33.7812C26.6207 36.0453 22.8113 37.375 18.6875 37.375C8.36445 37.375 0 29.0105 0 18.6875C0 8.36445 8.36445 0 18.6875 0C29.0105 0 37.375 8.36445 37.375 18.6875ZM18.6875 31.625C20.3865 31.625 22.0688 31.2904 23.6385 30.6402C25.2081 29.99 26.6343 29.037 27.8357 27.8357C29.0371 26.6343 29.99 25.2081 30.6402 23.6385C31.2904 22.0688 31.625 20.3865 31.625 18.6875C31.625 16.9885 31.2904 15.3062 30.6402 13.7365C29.99 12.1669 29.0371 10.7407 27.8357 9.5393C26.6343 8.33795 25.2081 7.38498 23.6385 6.73481C22.0688 6.08464 20.3865 5.75 18.6875 5.75C16.9885 5.75 15.3062 6.08464 13.7365 6.73481C12.1669 7.38498 10.7407 8.33795 9.53931 9.5393C8.33795 10.7407 7.38498 12.1669 6.73481 13.7365C6.08464 15.3062 5.75 16.9885 5.75 18.6875C5.75 20.3865 6.08464 22.0688 6.73481 23.6385C7.38498 25.2081 8.33795 26.6343 9.53931 27.8357C10.7407 29.037 12.1669 29.99 13.7365 30.6402C15.3062 31.2904 16.9885 31.625 18.6875 31.625Z" fill="#1F3851"/>
</svg>
