<svg width="46" height="46" viewBox="0 0 46 46" fill="none" xmlns="http://www.w3.org/2000/svg">
<g clip-path="url(#clip0_50_26)">
<path d="M41.2742 13.6293C41.3012 14.0336 41.3012 14.4469 41.3012 14.8512C41.3012 27.3125 31.8137 41.6785 14.4738 41.6785C9.12813 41.6785 4.16875 40.1332 0 37.4469C0.754687 37.5367 1.49141 37.5637 2.27305 37.5637C6.68437 37.5637 10.7363 36.0723 13.9797 33.5387C9.83789 33.4488 6.36094 30.7355 5.16602 26.998C5.75 27.0879 6.33398 27.1418 6.94492 27.1418C7.78945 27.1418 8.63398 27.025 9.42461 26.8184C5.10313 25.9469 1.86875 22.1465 1.86875 17.5645V17.4477C3.12656 18.1484 4.58203 18.5887 6.12734 18.6426C3.58477 16.9535 1.92266 14.0605 1.92266 10.7902C1.92266 9.03828 2.38984 7.43008 3.20742 6.02852C7.85234 11.7516 14.8242 15.4891 22.6496 15.8934C22.5059 15.1926 22.416 14.4648 22.416 13.7371C22.416 8.54414 26.6207 4.3125 31.8406 4.3125C34.5539 4.3125 37.0066 5.45352 38.7316 7.28633C40.8609 6.88203 42.9094 6.09141 44.7152 5.01328C44.0145 7.20547 42.523 9.03828 40.5734 10.2062C42.4691 9.99961 44.3109 9.47852 46 8.75078C44.7152 10.6195 43.107 12.2816 41.2742 13.6293Z" fill="#1F3851"/>
</g>
<defs>
<clipPath id="clip0_50_26">
<rect width="46" height="46" fill="white"/>
</clipPath>
</defs>
</svg>
